<?xml version="1.0" encoding="UTF-8"?>
<svg xmlns="http://www.w3.org/2000/svg" xmlns:xlink="http://www.w3.org/1999/xlink" width="px" height="px" viewBox="0 0 600 600" version="1.1">
<defs>
<linearGradient id="linear0" gradientUnits="userSpaceOnUse" x1="16" y1="2" x2="16" y2="30" gradientTransform="matrix(18.75,0,0,18.75,0,0)">
<stop offset="0" style="stop-color:rgb(16.470588%,78.823529%,98.039216%);stop-opacity:1;"/>
<stop offset="1" style="stop-color:rgb(12.156863%,39.607843%,92.156863%);stop-opacity:1;"/>
</linearGradient>
</defs>
<g id="surface1">
<path style=" stroke:none;fill-rule:nonzero;fill:url(#linear0);" d="M 562.5 300 C 562.5 155.023438 444.976562 37.5 300 37.5 C 155.023438 37.5 37.5 155.023438 37.5 300 C 37.5 444.976562 155.023438 562.5 300 562.5 C 444.976562 562.5 562.5 444.976562 562.5 300 Z M 562.5 300 "/>
<path style=" stroke:none;fill-rule:nonzero;fill:rgb(100%,100%,100%);fill-opacity:1;" d="M 345.878906 162.261719 C 351.550781 152.359375 348.160156 139.710938 338.300781 134.011719 C 328.445312 128.3125 315.855469 131.71875 310.179688 141.621094 L 300.285156 158.894531 L 290.390625 141.621094 C 284.71875 131.71875 272.125 128.3125 262.269531 134.011719 C 252.414062 139.710938 249.019531 152.359375 254.695312 162.261719 L 276.523438 200.371094 L 207.472656 320.90625 L 151.84375 320.90625 C 140.46875 320.90625 131.25 330.167969 131.25 341.59375 C 131.25 353.019531 140.46875 362.28125 151.84375 362.28125 L 345.609375 362.28125 C 347.304688 357.796875 349.09375 350.101562 347.191406 343.03125 C 344.332031 332.398438 333.75 320.90625 316.015625 320.90625 L 254.996094 320.90625 Z M 345.878906 162.261719 "/>
<path style=" stroke:none;fill-rule:nonzero;fill:rgb(100%,100%,100%);fill-opacity:1;" d="M 218.183594 385.160156 C 214.667969 381.238281 206.796875 374.976562 199.894531 372.914062 C 189.371094 369.769531 181.390625 371.742188 177.363281 373.460938 L 162.023438 400.238281 C 156.351562 410.140625 159.742188 422.789062 169.601562 428.488281 C 179.457031 434.1875 192.046875 430.78125 197.71875 420.878906 Z M 218.183594 385.160156 "/>
<path style=" stroke:none;fill-rule:nonzero;fill:rgb(100%,100%,100%);fill-opacity:1;" d="M 416.804688 362.28125 L 448.15625 362.28125 C 459.53125 362.28125 468.75 353.019531 468.75 341.59375 C 468.75 330.167969 459.53125 320.90625 448.15625 320.90625 L 393.097656 320.90625 L 331.078125 212.644531 C 326.472656 217.042969 317.636719 228.28125 316.304688 241.023438 C 314.585938 257.398438 317.160156 271.191406 324.882812 284.699219 C 350.847656 330.105469 376.851562 375.492188 402.851562 420.878906 C 408.523438 430.78125 421.113281 434.1875 430.972656 428.488281 C 440.828125 422.789062 444.222656 410.140625 438.546875 400.238281 Z M 416.804688 362.28125 "/>
</g>
</svg>
