<?xml version="1.0" encoding="UTF-8"?>
<svg xmlns="http://www.w3.org/2000/svg" xmlns:xlink="http://www.w3.org/1999/xlink" width="px" height="px" viewBox="0 0 600 600" version="1.1">
<g id="surface1">
<path style=" stroke:none;fill-rule:nonzero;fill:rgb(19.607843%,73.333335%,100%);fill-opacity:1;" d="M 448.089844 205.808594 C 378.386719 166.824219 266.515625 104.222656 92.996094 7.0625 C 81.296875 -0.664062 67.835938 -1.675781 56.207031 2.261719 L 353.921875 299.976562 Z M 448.089844 205.808594 "/>
<path style=" stroke:none;fill-rule:nonzero;fill:rgb(19.607843%,73.333335%,100%);fill-opacity:1;" d="M 56.207031 2.261719 C 54.027344 3 51.90625 3.890625 49.875 4.964844 C 37.035156 11.914062 27.597656 25.28125 27.597656 42.1875 L 27.597656 557.765625 C 27.597656 574.671875 37.03125 588.039062 49.875 594.988281 C 51.902344 596.0625 54.019531 596.957031 56.199219 597.699219 L 353.921875 299.976562 Z M 56.207031 2.261719 "/>
<path style=" stroke:none;fill-rule:nonzero;fill:rgb(19.607843%,73.333335%,100%);fill-opacity:1;" d="M 353.921875 299.976562 L 56.199219 597.699219 C 67.832031 601.664062 81.292969 600.730469 92.996094 592.890625 C 261.273438 498.660156 371.882812 436.800781 442.390625 397.484375 C 444.355469 396.382812 446.277344 395.304688 448.179688 394.234375 Z M 353.921875 299.976562 "/>
<path style=" stroke:none;fill-rule:nonzero;fill:rgb(17.254902%,62.352943%,85.09804%);fill-opacity:1;" d="M 27.597656 299.976562 L 27.597656 557.765625 C 27.597656 574.671875 37.03125 588.039062 49.875 594.988281 C 51.902344 596.0625 54.019531 596.957031 56.199219 597.699219 L 353.921875 299.976562 Z M 27.597656 299.976562 "/>
<path style=" stroke:none;fill-rule:nonzero;fill:rgb(16.078432%,80.000001%,36.862746%);fill-opacity:1;" d="M 92.996094 7.0625 C 79.101562 -2.109375 62.71875 -1.847656 49.875 4.96875 L 349.402344 304.496094 L 448.089844 205.808594 C 378.386719 166.824219 266.515625 104.222656 92.996094 7.0625 Z M 92.996094 7.0625 "/>
<path style=" stroke:none;fill-rule:nonzero;fill:rgb(85.09804%,24.705882%,12.941177%);fill-opacity:1;" d="M 349.40625 295.460938 L 49.875 594.988281 C 62.71875 601.800781 79.101562 602.195312 92.996094 592.890625 C 261.273438 498.660156 371.882812 436.800781 442.390625 397.484375 C 444.355469 396.382812 446.277344 395.304688 448.179688 394.234375 Z M 349.40625 295.460938 "/>
<path style=" stroke:none;fill-rule:nonzero;fill:rgb(100%,83.529413%,0%);fill-opacity:1;" d="M 572.402344 299.976562 C 572.402344 285.691406 565.195312 271.277344 550.910156 263.28125 C 550.910156 263.28125 524.191406 248.375 442.296875 202.566406 L 344.886719 299.976562 L 442.390625 397.484375 C 523.386719 352.007812 550.90625 336.671875 550.90625 336.671875 C 565.195312 328.679688 572.402344 314.261719 572.402344 299.976562 Z M 572.402344 299.976562 "/>
<path style=" stroke:none;fill-rule:nonzero;fill:rgb(100%,66.666669%,0%);fill-opacity:1;" d="M 550.910156 336.671875 C 565.195312 328.679688 572.402344 314.261719 572.402344 299.976562 L 344.886719 299.976562 L 442.390625 397.484375 C 523.386719 352.007812 550.910156 336.671875 550.910156 336.671875 Z M 550.910156 336.671875 "/>
</g>
</svg>
