<!DOCTYPE svg PUBLIC "-//W3C//DTD SVG 1.1//EN" "http://www.w3.org/Graphics/SVG/1.1/DTD/svg11.dtd">
<!-- Uploaded to: SVG Repo, www.svgrepo.com, Transformed by: SVG Repo Mixer Tools -->
<svg fill="#000000" version="1.1" id="Capa_1" xmlns="http://www.w3.org/2000/svg" xmlns:xlink="http://www.w3.org/1999/xlink" width="110px" height="110px" viewBox="0 0 31.77 31.77" xml:space="preserve">
<g id="SVGRepo_bgCarrier" stroke-width="0"/>
<g id="SVGRepo_tracerCarrier" stroke-linecap="round" stroke-linejoin="round"/>
<g id="SVGRepo_iconCarrier"> <g> <g> <path d="M26.928,15.647v-1.509l-0.217-0.086c-0.074-0.029-1.848-0.717-4.212-0.717c-1.31,0-2.522,0.21-3.638,0.62l-0.385-1.66 c0.926-0.129,1.613-0.27,1.613-0.27v-1.69c0,0-0.884,0.18-1.992,0.317l-0.525-2.267h0.404V4.607h-1.381V1.635h-1.469v2.973h-1.382 v3.778h0.405l-0.524,2.264c-1.108-0.138-1.993-0.314-1.993-0.314v1.691c0,0,0.688,0.138,1.613,0.266l-0.363,1.57 c-1.04-0.347-2.162-0.526-3.365-0.526c-2.365,0-4.138,0.688-4.212,0.718L5.089,14.14v1.396c-0.716,0.134-1.162,0.374-1.162,0.766 c0,2.038,0,14.4,0,14.4h10.605c0.367,0.328,0.904,0.536,1.503,0.536c0.599,0,1.136-0.208,1.503-0.536h10.338c0,0,0-13.687,0-14.4 C27.876,15.982,27.516,15.775,26.928,15.647z M18.455,14.121c-0.298,0.126-0.588,0.265-0.871,0.42l-0.492-2.093 c0.326-0.024,0.648-0.059,0.954-0.097L18.455,14.121z M17.664,10.704c-0.314,0.035-0.641,0.063-0.964,0.082l-0.565-2.4h0.993 L17.664,10.704z M16.259,10.807c-0.127,0.004-0.253,0.006-0.376,0.006c-0.137,0-0.278-0.003-0.419-0.008l0.397-1.69L16.259,10.807 z M14.18,5.043h3.364v2.909h-0.071h-1.338h-0.548H14.25h-0.07V5.043z M14.596,8.385h0.991l-0.563,2.397 c-0.323-0.021-0.648-0.048-0.964-0.083L14.596,8.385z M13.678,12.347c0.306,0.038,0.628,0.07,0.954,0.098l-0.461,1.961 c-0.286-0.146-0.578-0.278-0.878-0.395L13.678,12.347z M15.894,29.564c-0.881-0.362-3.914-1.516-6.951-1.516 c-1.199,0-2.262,0.185-3.168,0.547v-13.98c0.528-0.177,1.969-0.594,3.743-0.594c2.332,0,4.335,0.705,5.972,2.08v8.347l0.404-0.444 V29.564z M16.008,15.629c-0.454-0.389-0.935-0.727-1.44-1.018l0.502-2.135c0.275,0.018,0.549,0.027,0.813,0.027 c0.25,0,0.51-0.01,0.77-0.024l0.539,2.293C16.781,15.027,16.383,15.307,16.008,15.629z M26.241,28.6 c-0.972-0.391-2.089-0.588-3.326-0.588c-3.036,0-5.925,1.162-6.792,1.547v-5.555l0.404,0.443v-8.346 c1.636-1.375,3.641-2.08,5.972-2.08c1.769,0,3.213,0.417,3.743,0.594L26.241,28.6L26.241,28.6z"/> <path d="M0,3.855l0.34,14.025l1.108-1.349h0.001l0.318-0.389l12.056-14.68L0,3.855z M11.383,3.416l-0.311,0.382l-0.715-0.583 l-0.214,0.262l0.715,0.582l-0.231,0.284l-0.488-0.398L9.926,4.207l0.486,0.396l-0.316,0.391L9.383,4.409L9.168,4.671l0.714,0.583 l-0.23,0.282L9.164,5.138L8.95,5.401l0.489,0.396L9.146,6.155L8.431,5.574L8.218,5.836L8.932,6.42l-0.23,0.281L8.214,6.303 L8,6.564l0.488,0.397l-0.317,0.39L7.456,6.769l-0.212,0.26l0.714,0.584L7.726,7.896L7.238,7.498L7.026,7.759l0.487,0.397 L7.228,8.507L7.215,8.496L7.062,8.695L6.526,8.256L6.311,8.518L6.878,8.98L6.646,9.262L6.307,8.985L6.094,9.248l0.338,0.275 L6.113,9.91L5.55,9.45L5.336,9.712l0.563,0.46l-0.231,0.28L5.332,10.18l-0.213,0.26l0.335,0.275l-0.313,0.379l-0.629-0.513 l-0.214,0.262l0.628,0.513l-0.231,0.282l-0.4-0.327l-0.213,0.262l0.4,0.325l-0.318,0.387l-0.625-0.509l-0.214,0.262l0.625,0.509 L3.718,12.83l-0.396-0.324l-0.213,0.262l0.395,0.322l-0.293,0.358l-0.625-0.507l-0.213,0.261l0.621,0.507L2.762,13.99l-0.393-0.32 l-0.214,0.261l0.393,0.321l-0.319,0.387l-0.618-0.505l-0.212,0.262L2.016,14.9l-0.231,0.282l-0.391-0.318l-0.213,0.262 l0.389,0.317l-0.671,0.816L0.61,4.356l11.655-2.018l-0.667,0.816l-0.42-0.343l-0.214,0.262L11.383,3.416z"/> <path d="M2.603,11.679l5.712-6.958L2.458,5.736L2.603,11.679z M6.835,5.584L3.16,10.059L3.067,6.237L6.835,5.584z"/> <path d="M21.288,0.531L18.518,3.18L29,14.134l2.77-2.649L21.288,0.531z M28.463,12.608l0.857-0.819l-0.332-0.348l-0.857,0.821 l-0.357-0.376l0.557-0.534l-0.332-0.345l-0.557,0.532l-0.494-0.517l0.857-0.819l-0.332-0.348l-0.857,0.821l-0.36-0.376 l0.558-0.533l-0.334-0.346l-0.557,0.532l-0.482-0.505l0.947-0.905l-0.332-0.349l-0.949,0.907l-0.358-0.375l0.647-0.619 l-0.332-0.348l-0.647,0.619l-0.492-0.516l0.947-0.905l-0.332-0.349L23.59,7.516L23.23,7.141l0.647-0.619l-0.332-0.348 l-0.647,0.621l-0.455-0.478l0.949-0.906l-0.332-0.346l-0.949,0.907l-0.358-0.376L22.4,4.977l-0.332-0.346L21.422,5.25 l-0.494-0.516l0.948-0.907L21.544,3.48l-0.948,0.906l-0.359-0.375l0.646-0.618l-0.332-0.348l-0.646,0.619l-0.443-0.463 l1.805-1.729l9.562,9.993l-1.806,1.727L28.463,12.608z"/> </g> </g> </g>
</svg>